<?xml version="1.0" encoding="UTF-8" standalone="no"?>
<!DOCTYPE svg PUBLIC "-//W3C//DTD SVG 1.1//EN" "http://www.w3.org/Graphics/SVG/1.1/DTD/svg11.dtd">
<svg version="1.1" xmlns="http://www.w3.org/2000/svg" xmlns:xlink="http://www.w3.org/1999/xlink" preserveAspectRatio="xMidYMid meet" viewBox="127.97434779575889 116.3443335229224 124.00000000000003 124" width="120" height="120"><defs><path d="M248.97 177.34C248.97 210.46 222.09 237.34 188.97 237.34C155.86 237.34 128.97 210.46 128.97 177.34C128.97 144.23 155.86 117.34 188.97 117.34C222.09 117.34 248.97 144.23 248.97 177.34Z" id="bgsLifBZK"></path><path d="M238.97 177.34C238.97 204.94 216.57 227.34 188.97 227.34C161.38 227.34 138.97 204.94 138.97 177.34C138.97 149.75 161.38 127.34 188.97 127.34C216.57 127.34 238.97 149.75 238.97 177.34Z" id="b2fdAX5cC6"></path><path d="M228.97 177.34C228.97 199.42 211.05 217.34 188.97 217.34C166.9 217.34 148.97 199.42 148.97 177.34C148.97 155.27 166.9 137.34 188.97 137.34C211.05 137.34 228.97 155.27 228.97 177.34Z" id="bhR76mBbv"></path></defs><g><g><use xlink:href="#bgsLifBZK" opacity="1" fill="#ffb100" fill-opacity="1"></use></g><g><use xlink:href="#b2fdAX5cC6" opacity="1" fill="#ffc300" fill-opacity="1"></use></g><g><use xlink:href="#bhR76mBbv" opacity="1" fill="#ffde00" fill-opacity="1"></use></g></g></svg>