<svg version="1.1" xmlns="http://www.w3.org/2000/svg" xmlns:xlink="http://www.w3.org/1999/xlink" preserveAspectRatio="xMidYMid meet" viewBox="187.5698707603857 108.56368455768002 229.93562374510884 160.7773108529217" width="225.44" height="156.28"><defs><path d="M258.06 116.47C266.79 119.58 271.7 128.85 269.35 137.82C262.38 164.45 245.62 228.47 238.65 255.1C236.42 263.63 227.36 268.42 219.05 265.47C213.24 263.4 211.24 262.69 205.42 260.62C196.69 257.52 191.78 248.24 194.13 239.27C201.1 212.65 217.86 148.63 224.83 122C227.06 113.47 236.12 108.68 244.43 111.63C250.24 113.7 252.24 114.41 258.06 116.47Z" id="b3BwTCNNUE"/><path d="M281.59 137.81C284.73 137.81 287.28 140.36 287.28 143.5C287.28 148.17 287.28 156.51 287.28 161.18C287.28 164.32 284.73 166.86 281.59 166.86C270.52 166.86 242.98 166.86 231.91 166.86C228.77 166.86 226.23 164.32 226.23 161.18C226.23 156.51 226.23 148.17 226.23 143.5C226.23 140.36 228.77 137.81 231.91 137.81C242.98 137.81 270.52 137.81 281.59 137.81Z" id="aa1KAeHYy"/><path d="M246.21 113.85C254.95 116.96 259.85 126.23 257.51 135.2C250.54 161.83 233.78 225.85 226.81 252.47C224.57 261.01 215.52 265.8 207.21 262.85C202.86 261.3 205.29 262.17 200.95 260.62C192.21 257.52 187.31 248.24 189.66 239.27C196.63 212.65 213.39 148.63 220.36 122C222.59 113.47 231.65 108.68 239.96 111.63C244.3 113.17 241.87 112.31 246.21 113.85Z" id="a2UYPLj0oc"/><path d="M394.51 110.06C405.55 110.06 414.51 119.02 414.51 130.06C414.51 134.52 414.51 127.88 414.51 132.34C414.51 143.38 405.55 152.34 394.51 152.34C358.95 152.34 272.26 152.34 236.7 152.34C225.66 152.34 216.7 143.38 216.7 132.34C216.7 127.88 216.7 134.52 216.7 130.06C216.7 119.02 225.66 110.06 236.7 110.06C272.26 110.06 358.95 110.06 394.51 110.06Z" id="eozhzuAgr"/></defs><g><g><use xlink:href="#b3BwTCNNUE" opacity="1" fill="#532d09" fill-opacity="1"/></g><g><use xlink:href="#aa1KAeHYy" opacity="1" fill="#2c2724" fill-opacity="1"/></g><g><use xlink:href="#a2UYPLj0oc" opacity="1" fill="#1c1a1a" fill-opacity="1"/></g><g><use xlink:href="#eozhzuAgr" opacity="1" fill="#3a3a3a" fill-opacity="1"/></g></g></svg>